<svg xmlns="http://www.w3.org/2000/svg" width="277.81" height="64.614"
    viewBox="0 0 370 86.056">
    <path fill="none"
        d="M4.433 12.604v5.855h25.622V7.433H11.42c-3.787 0-6.986 2.368-6.986 5.171zM4.433 22.892h25.622V36.56H4.433zM34.487 64.015h39.398v15.703H34.487zM4.433 40.99h25.622v18.592H4.433zM4.433 74.548c0 2.804 3.2 5.172 6.986 5.172h18.636V64.015H4.433v10.533zM88.582 7.433H34.487v16.198h32.259v4.432H34.487v31.519h39.398v-44.57h4.432v3.448h17.25v-5.856c0-2.803-3.2-5.17-6.985-5.17zM78.317 79.718h10.265c3.785 0 6.986-2.367 6.986-5.172V64.014h-17.25v15.704z" />
    <path fill="none" d="M78.317 40.99h17.25v18.592h-17.25zM78.317 22.892h17.25V36.56h-17.25z" />
    <path fill="#00b96b"
        d="M88.582 3H11.419C5.122 3 0 7.308 0 12.603v61.943c0 5.296 5.122 9.605 11.42 9.605h77.162c6.297 0 11.418-4.309 11.418-9.605V12.604C100 7.308 94.878 3 88.582 3zM30.054 79.718H11.419c-3.786 0-6.986-2.367-6.986-5.172V64.014h25.622v15.704zm0-20.135H4.434V40.99h25.621v18.593zm0-23.025H4.434V22.892h25.621v13.666zm0-18.1H4.434v-5.854c0-2.803 3.2-5.17 6.985-5.17h18.636v11.025zm43.831 61.26H34.487V64.015h39.398v15.703zm21.682-5.17c0 2.804-3.2 5.172-6.986 5.172H78.316V64.015h17.25v10.533zm0-14.965h-17.25V40.99h17.25v18.593zm0-23.025h-17.25V22.892h17.25v13.666zm0-18.1h-17.25v-3.447h-4.432v44.57H34.487V28.065h32.259v-4.432H34.487V7.433h54.095c3.785 0 6.986 2.368 6.986 5.171v5.855zM120 61.78V.698h9.599V61.78H120zm15.358-46.422c0-9.773 4.8-15.358 14.136-15.358s14.136 5.585 14.136 15.358v1.92h-9.075v-2.531c0-4.363-1.745-6.021-4.8-6.021s-4.799 1.658-4.799 6.02c0 4.451 1.92 7.767 8.203 13.264 8.028 7.069 10.558 12.13 10.558 19.11 0 9.774-4.886 15.358-14.31 15.358s-14.311-5.584-14.311-15.358v-3.752h9.075v4.363c0 4.363 1.92 5.934 4.974 5.934s4.974-1.57 4.974-5.934c0-4.45-1.92-7.766-8.203-13.263-8.028-7.068-10.558-12.13-10.558-19.11zm32.635 0c0-9.773 4.8-15.358 14.136-15.358s14.136 5.585 14.136 15.358v1.92h-9.075v-2.531c0-4.363-1.745-6.021-4.8-6.021s-4.798 1.658-4.798 6.02c0 4.451 1.92 7.767 8.202 13.264 8.028 7.069 10.559 12.13 10.559 19.11 0 9.774-4.887 15.358-14.311 15.358s-14.31-5.584-14.31-15.358v-3.752h9.074v4.363c0 4.363 1.92 5.934 4.974 5.934s4.974-1.57 4.974-5.934c0-4.45-1.92-7.766-8.203-13.263-8.027-7.068-10.558-12.13-10.558-19.11zm33.42-14.66h9.6v47.12c0 4.364 1.919 5.934 4.973 5.934s4.974-1.57 4.974-5.933V.699h9.075v46.509c0 9.773-4.887 15.357-14.31 15.357s-14.311-5.584-14.311-15.357V.698zm44.765 8.726V26.44h13.176v8.726h-13.176v17.888h16.58v8.726h-26.179V.698h26.178v8.726h-16.579zM283.176.698c9.948 0 14.224 4.625 14.224 14.049v2.181c0 6.283-1.92 10.21-6.196 12.217v.174c5.149 2.007 7.156 6.545 7.156 13.002v4.974c0 9.424-4.974 14.485-14.573 14.485h-15.096V.698h14.485zm-.61 33.595h-4.276v18.761h5.497c3.229 0 4.974-1.483 4.974-6.02V41.71c0-5.672-1.833-7.417-6.196-7.417zm.348-24.869h-4.624v16.143h3.752c3.578 0 5.759-1.57 5.759-6.457v-3.403c0-4.363-1.483-6.283-4.887-6.283zM325.41.698l9.773 61.082h-9.686l-1.658-11.082h-11.78l-1.658 11.082h-8.813L311.361.698h14.05zm-7.591 10.82-4.538 30.89h9.25l-4.538-30.89h-.174zm42.32 50.262-11.78-44.24h-.174v44.24h-8.639V.698h12.042l9.686 36.562h.175V.698H370V61.78h-9.86zM120 85.892V73.146h2.003v12.746H120zm11.425-9.687c0-2.04 1.001-3.205 2.95-3.205s2.95 1.165 2.95 3.205v.4h-1.894v-.528c0-.91-.364-1.256-1.002-1.256s-1.001.346-1.001 1.256c0 .93.4 1.621 1.711 2.768 1.676 1.475 2.204 2.531 2.204 3.988 0 2.04-1.02 3.205-2.987 3.205s-2.986-1.165-2.986-3.205v-.783h1.894v.91c0 .911.4 1.239 1.038 1.239s1.038-.328 1.038-1.238c0-.929-.4-1.621-1.712-2.768-1.675-1.475-2.203-2.531-2.203-3.988zm15.03 0c0-2.04 1.001-3.205 2.95-3.205s2.95 1.165 2.95 3.205v.4h-1.894v-.528c0-.91-.364-1.256-1.001-1.256s-1.002.346-1.002 1.256c0 .93.4 1.621 1.712 2.768 1.675 1.475 2.203 2.531 2.203 3.988 0 2.04-1.02 3.205-2.986 3.205s-2.987-1.165-2.987-3.205v-.783h1.894v.91c0 .911.4 1.239 1.038 1.239s1.038-.328 1.038-1.238c0-.929-.4-1.621-1.712-2.768-1.675-1.475-2.203-2.531-2.203-3.988zm15.194-3.06h2.003v9.834c0 .91.4 1.238 1.038 1.238s1.038-.328 1.038-1.238v-9.833h1.894v9.705c0 2.04-1.02 3.205-2.987 3.205s-2.986-1.165-2.986-3.205v-9.705zm17.561 1.822v3.55h2.75v1.822h-2.75v3.732h3.46v1.821h-5.463V73.146h5.463v1.82h-3.46zm12.663 1.238c0-2.04 1.002-3.205 2.95-3.205s2.95 1.165 2.95 3.205v.4h-1.893v-.528c0-.91-.365-1.256-1.002-1.256s-1.002.346-1.002 1.256c0 .93.401 1.621 1.712 2.768 1.675 1.475 2.204 2.531 2.204 3.988 0 2.04-1.02 3.205-2.987 3.205s-2.986-1.165-2.986-3.205v-.783h1.894v.91c0 .911.4 1.239 1.038 1.239s1.037-.328 1.037-1.238c0-.929-.4-1.621-1.711-2.768-1.676-1.475-2.204-2.531-2.204-3.988zm29.096-3.06 1.457 9.05h.036l1.347-9.05h2.787v12.747h-1.894v-9.14h-.037l-1.347 9.14h-1.894l-1.457-9.013h-.036v9.013h-1.748V73.146h2.786zm19.746 0 2.04 12.747h-2.022l-.346-2.312h-2.458l-.346 2.312h-1.839l2.04-12.746h2.931zm-1.584 2.259-.947 6.446h1.93l-.947-6.446h-.036zm17.052 10.488-2.459-9.232h-.036v9.232h-1.803V73.146h2.513l2.021 7.63h.037v-7.63h1.784v12.746h-2.057zm16.159-12.746 2.04 12.746h-2.022l-.346-2.312h-2.458l-.346 2.312h-1.84l2.04-12.746h2.932zm-1.584 2.258-.947 6.446h1.93l-.947-6.446h-.036zm15.776 5.208V78.79h2.805v4.042c0 2.04-1.02 3.205-2.987 3.205s-2.986-1.165-2.986-3.205v-6.628c0-2.04 1.02-3.205 2.986-3.205s2.987 1.165 2.987 3.205v1.238h-1.894v-1.366c0-.91-.4-1.256-1.038-1.256s-1.038.346-1.038 1.256v6.884c0 .91.4 1.238 1.038 1.238s1.038-.328 1.038-1.238v-2.35h-.91zm14.32-5.645v3.55h2.75v1.822h-2.75v3.732h3.46v1.821h-5.463V73.146h5.463v1.82h-3.46zM320 85.892h-2.04c-.109-.327-.182-.528-.182-1.566v-2.003c0-1.183-.4-1.62-1.31-1.62h-.693v5.19h-2.003V73.145h3.023c2.076 0 2.968.965 2.968 2.931v1.002c0 1.311-.419 2.149-1.31 2.568v.036c1 .419 1.328 1.366 1.328 2.695v1.967c0 .619.019 1.074.219 1.547zm-3.26-10.925h-.965v3.915h.783c.747 0 1.202-.328 1.202-1.348v-1.256c0-.91-.31-1.311-1.02-1.311z" />
</svg>