<svg xmlns="http://www.w3.org/2000/svg" width="75.084" height="60.931"
    viewBox="0 0 100 81.151">
    <path fill="none"
        d="M4.433 9.604v5.855h25.622V4.433H11.42c-3.787 0-6.986 2.368-6.986 5.171zM4.433 19.892h25.622V33.56H4.433zM34.487 61.015h39.398v15.703H34.487zM4.433 37.99h25.622v18.592H4.433zM4.433 71.548c0 2.805 3.2 5.172 6.986 5.172h18.636V61.015H4.433ZM88.582 4.433H34.487v16.198h32.259v4.432H34.487v31.519h39.398v-44.57h4.432v3.448h17.25V9.604c0-2.803-3.2-5.17-6.985-5.17zM78.317 76.718h10.265c3.785 0 6.986-2.367 6.986-5.172V61.014h-17.25v15.704z" />
    <path fill="none" d="M78.317 37.99h17.25v18.592h-17.25zM78.317 19.892h17.25V33.56h-17.25z" />
    <path fill="#00b96b"
        d="M88.582 0H11.419C5.122 0 0 4.308 0 9.603v61.943c0 5.296 5.122 9.605 11.42 9.605h77.162c6.297 0 11.418-4.309 11.418-9.605V9.604C100 4.308 94.878 0 88.582 0zM30.054 76.718H11.419c-3.786 0-6.986-2.367-6.986-5.172V61.014h25.622v15.704zm0-20.135H4.434V37.99h25.621v18.593zm0-23.025H4.434V19.892h25.621v13.666zm0-18.1H4.434V9.605c0-2.803 3.2-5.17 6.985-5.17h18.636v11.025zm43.831 61.26H34.487V61.015h39.398Zm21.682-5.17c0 2.805-3.2 5.172-6.986 5.172H78.316V61.015h17.25v10.533zm0-14.965h-17.25V37.99h17.25zm0-23.025h-17.25V19.892h17.25zm0-18.1h-17.25v-3.447h-4.432v44.57H34.487V25.065h32.259v-4.432H34.487V4.433h54.095c3.785 0 6.986 2.368 6.986 5.171v5.855z" />
</svg>